HIERARCHY
ROOT Hips
{
	OFFSET 0.000000 0.000000 0.000000
	CHANNELS 6 Xposition Yposition Zposition Xrotation Yrotation Zrotation
	JOINT LeftUpLeg_virtual
	{
		OFFSET 0.000000 0.000000 0.000000
		CHANNELS 3 Xrotation Yrotation Zrotation
		JOINT LeftUpLeg
		{
			OFFSET 13.026900 -6.336304 -1.092800
			CHANNELS 3 Xrotation Yrotation Zrotation
			JOINT LeftLeg
			{
				OFFSET 0.524474 -46.096886 9.782700
				CHANNELS 3 Xrotation Yrotation Zrotation
				JOINT LeftFoot
				{
					OFFSET -0.524474 -53.427422 -12.948200
					CHANNELS 3 Xrotation Yrotation Zrotation
					JOINT LeftToeBase
					{
						OFFSET 0.192200 -14.009700 16.364100
						CHANNELS 3 Xrotation Yrotation Zrotation
						JOINT LeftToe_End
						{
							OFFSET -1.784700 -0.561700 9.474800
							CHANNELS 3 Xrotation Yrotation Zrotation
							End Site
							{
								OFFSET 0 0 0
							}
						}
					}
				}
			}
		}
	}
	JOINT RightUpLeg_virtual
	{
		OFFSET 0.000000 0.000000 0.000000
		CHANNELS 3 Xrotation Yrotation Zrotation
		JOINT RightUpLeg
		{
			OFFSET -12.883000 -6.336304 -1.092800
			CHANNELS 3 Xrotation Yrotation Zrotation
			JOINT RightLeg
			{
				OFFSET -0.524587 -46.096825 9.782800
				CHANNELS 3 Xrotation Yrotation Zrotation
				JOINT RightFoot
				{
					OFFSET 0.524587 -53.427383 -12.948300
					CHANNELS 3 Xrotation Yrotation Zrotation
					JOINT RightToeBase
					{
						OFFSET -0.192200 -14.009700 16.364100
						CHANNELS 3 Xrotation Yrotation Zrotation
						JOINT RightToe_End
						{
							OFFSET 1.784700 -0.561700 9.474800
							CHANNELS 3 Xrotation Yrotation Zrotation
							End Site
							{
								OFFSET 0 0 0
							}
						}
					}
				}
			}
		}
	}
	JOINT Spine_virtual
	{
		OFFSET 0.000000 0.000000 0.000000
		CHANNELS 3 Xrotation Yrotation Zrotation
		JOINT Spine
		{
			OFFSET 0.072000 7.257294 -0.789700
			CHANNELS 3 Xrotation Yrotation Zrotation
			JOINT Spine1
			{
				OFFSET 0.000000 12.508769 -0.658067
				CHANNELS 3 Xrotation Yrotation Zrotation
				JOINT Spine1_split
				{
					OFFSET 0.000000 12.508769 -0.658067
					CHANNELS 3 Xrotation Yrotation Zrotation
					JOINT Spine2
					{
						OFFSET 0.000000 12.508769 -0.658067
						CHANNELS 3 Xrotation Yrotation Zrotation
						JOINT Neck_virtual
						{
							OFFSET 0.000000 0.000000 0.000000
							CHANNELS 3 Xrotation Yrotation Zrotation
							JOINT Neck
							{
								OFFSET 0.000000 14.033295 7.520400
								CHANNELS 3 Xrotation Yrotation Zrotation
								JOINT Head
								{
									OFFSET 0.000000 8.198502 5.703100
									CHANNELS 3 Xrotation Yrotation Zrotation
									JOINT HeadTop_End
									{
										OFFSET 0.000000 17.760803 13.332701
										CHANNELS 3 Xrotation Yrotation Zrotation
										End Site
										{
											OFFSET 0 0 0
										}
									}
								}
							}
						}
						JOINT LeftShoulder_virtual
						{
							OFFSET 0.000000 0.000000 0.000000
							CHANNELS 3 Xrotation Yrotation Zrotation
							JOINT LeftShoulder
							{
								OFFSET 6.292450 5.785301 -0.669000
								CHANNELS 3 Xrotation Yrotation Zrotation
								JOINT LeftShoulder_split
								{
									OFFSET 6.292450 5.785301 -0.669000
									CHANNELS 3 Xrotation Yrotation Zrotation
									JOINT LeftArm
									{
										OFFSET 13.907140 -6.093903 1.965100
										CHANNELS 3 Xrotation Yrotation Zrotation
										JOINT LeftForeArm
										{
											OFFSET 34.140198 0.000000 0.000000
											CHANNELS 3 Xrotation Yrotation Zrotation
											JOINT LeftHand
											{
												OFFSET 40.960209 0.000000 0.000000
												CHANNELS 3 Xrotation Yrotation Zrotation
												End Site
												{
													OFFSET 0 0 0
												}
											}
										}
									}
								}
							}
						}
						JOINT RightShoulder_virtual
						{
							OFFSET 0.000000 0.000000 0.000000
							CHANNELS 3 Xrotation Yrotation Zrotation
							JOINT RightShoulder
							{
								OFFSET -6.292450 5.785301 -0.669000
								CHANNELS 3 Xrotation Yrotation Zrotation
								JOINT RightShoulder_split
								{
									OFFSET -6.292450 5.785301 -0.669000
									CHANNELS 3 Xrotation Yrotation Zrotation
									JOINT RightArm
									{
										OFFSET -13.907140 -6.093903 1.965100
										CHANNELS 3 Xrotation Yrotation Zrotation
										JOINT RightForeArm
										{
											OFFSET -34.140198 0.000000 0.000000
											CHANNELS 3 Xrotation Yrotation Zrotation
											JOINT RightHand
											{
												OFFSET -40.960209 0.000000 0.000000
												CHANNELS 3 Xrotation Yrotation Zrotation
												End Site
												{
													OFFSET 0 0 0
												}
											}
										}
									}
								}
							}
						}
					}
				}
			}
		}
	}
}
MOTION
Frames: 8
Frame Time: 0.03333333
-83.390244 22.953735 2.777149 0.000000 0.000000 0.000000 -58.721185 9.254248 100.443758 -37.841970 28.206581 2.334771 63.256001 -2.175515 -7.214045 -16.837294 -11.371807 4.471921 -1.295516 -0.033275 -0.027847 0.000000 0.000000 0.000000 -58.721185 9.254248 100.443758 -59.169990 -5.738740 -35.556602 116.497810 6.862304 6.833530 6.028598 10.197951 28.512628 -0.001744 0.015022 -0.000111 0.000000 0.000000 0.000000 -58.721185 9.254248 100.443758 13.665176 -0.207151 -7.976761 16.440306 0.246672 -3.275165 0.000000 0.000000 0.000000 0.000000 0.000000 0.000000 16.425632 0.382569 -3.359051 55.837872 6.471002 -15.932349 -15.707540 9.351466 1.833018 0.000000 0.000000 0.000000 16.425632 0.382569 -3.359051 5.814952 1.516410 -4.688135 0.000000 0.000000 0.000000 -74.915243 -6.740976 -27.974764 58.640801 -0.227346 0.365210 0.000000 0.000000 0.000000 16.425632 0.382569 -3.359051 4.350982 9.519742 -3.915169 0.000000 0.000000 0.000000 -1.908431 -4.831215 1.339511 32.754620 33.258773 -23.829336 0.000000 0.000000 0.000000 
-85.163910 18.092110 3.661644 0.000000 0.000000 0.000000 -57.357272 -0.735778 105.035680 -32.937184 18.069108 2.761275 67.100448 10.511835 -8.185317 -27.531762 -4.596687 -5.619504 -1.205613 -0.003107 -0.002244 0.000000 0.000000 0.000000 -57.357272 -0.735778 105.035680 -55.009623 -5.233509 -32.463254 117.670198 -6.128055 3.596631 -7.638903 5.503935 23.449843 -0.001735 0.017328 -0.000097 0.000000 0.000000 0.000000 -57.357272 -0.735778 105.035680 17.547733 -1.617524 -6.242404 13.624173 -1.732714 -2.465769 0.000000 0.000000 0.000000 0.000000 0.000000 0.000000 13.638202 -1.655714 -2.445543 61.075504 1.954506 -14.888457 -12.574470 6.608065 -1.023412 0.000000 0.000000 0.000000 13.638202 -1.655714 -2.445543 5.241385 7.707925 -14.772680 0.000000 0.000000 0.000000 -82.451489 -2.394238 -28.832875 71.492123 -0.210149 0.553449 0.000000 0.000000 0.000000 13.638202 -1.655714 -2.445543 4.001937 5.115520 -8.837081 0.000000 0.000000 0.000000 0.941029 11.676196 -0.032724 16.412180 34.300151 -10.963364 0.000000 0.000000 0.000000 
-87.799744 17.096458 4.135986 0.000000 0.000000 0.000000 -58.169825 -8.273139 110.113591 -26.174960 9.951049 -0.207634 66.121538 24.083314 -7.810868 -21.975205 2.583211 -11.747107 -1.193370 0.000772 0.001083 0.000000 0.000000 0.000000 -58.169825 -8.273139 110.113591 -46.134311 -2.540739 -35.872160 112.627497 -8.794914 3.714321 -8.067507 2.312661 21.060405 -0.001706 0.019174 -0.000151 0.000000 0.000000 0.000000 -58.169825 -8.273139 110.113591 17.174856 -0.920504 -8.136996 11.398453 -0.584633 -0.043194 0.000000 0.000000 0.000000 0.000000 0.000000 0.000000 11.409022 -0.296436 -0.105067 54.211085 -1.921295 -8.891015 -10.171431 -2.965742 3.741874 0.000000 0.000000 0.000000 11.409022 -0.296436 -0.105067 2.907747 8.859724 -22.825135 0.000000 0.000000 0.000000 -91.371477 5.872687 -27.433315 67.652785 -0.270053 0.721410 0.000000 0.000000 0.000000 11.409022 -0.296436 -0.105067 5.114540 27.130553 -12.631170 0.000000 0.000000 0.000000 5.284838 -4.495285 -1.329834 24.650076 25.912180 -13.127672 0.000000 0.000000 0.000000 
-97.173897 15.497131 2.975845 0.000000 0.000000 0.000000 -64.772945 -12.872249 110.837093 -23.566405 2.333921 -4.159482 52.590855 29.269437 -2.844882 6.087105 4.187506 2.016580 -1.186190 0.003065 0.003087 0.000000 0.000000 0.000000 -64.772945 -12.872249 110.837093 -39.487492 -7.273589 -41.723215 98.597790 -12.265832 6.902973 -1.795979 3.187936 25.076893 -0.001716 0.020614 -0.000190 0.000000 0.000000 0.000000 -64.772945 -12.872249 110.837093 15.364874 1.103886 -7.724756 10.109185 2.099978 3.898072 0.000000 0.000000 0.000000 0.000000 0.000000 0.000000 10.066531 2.539757 3.718509 35.117978 -7.903656 -5.097228 -11.562674 -11.343104 4.879131 0.000000 0.000000 0.000000 10.066531 2.539757 3.718509 1.459234 5.850928 -21.104781 0.000000 0.000000 0.000000 -91.026266 18.797309 -28.629482 23.564866 -0.306022 0.116262 0.000000 0.000000 0.000000 10.066531 2.539757 3.718509 6.068697 10.397460 -16.699143 0.000000 0.000000 0.000000 -9.280398 9.533692 4.128691 32.684166 20.235381 -12.252940 0.000000 0.000000 0.000000 
-105.724281 14.302948 0.714745 0.000000 0.000000 0.000000 -73.229354 -15.974481 108.330953 -20.659570 -6.224637 -1.764772 43.365643 35.178039 -2.062540 19.962469 8.056607 -3.430540 -1.180085 0.004958 0.004731 0.000000 0.000000 0.000000 -73.229354 -15.974481 108.330953 -35.723016 -12.668058 -45.156546 83.107160 -14.788244 11.051798 7.387889 4.047879 22.262349 -0.001716 0.021675 -0.000212 0.000000 0.000000 0.000000 -73.229354 -15.974481 108.330953 15.625880 0.395317 -4.666581 8.202068 0.361833 4.664751 0.000000 0.000000 0.000000 0.000000 0.000000 0.000000 8.202688 0.736754 4.594225 14.413653 -7.422554 -4.649068 -15.574331 -9.802699 1.446669 0.000000 0.000000 0.000000 8.202688 0.736754 4.594225 0.639245 -0.327107 -20.375223 0.000000 0.000000 0.000000 -99.749824 37.617851 -14.407528 27.688859 -27.209373 19.480956 0.000000 0.000000 0.000000 8.202688 0.736754 4.594225 6.052461 5.294174 -14.880301 0.000000 0.000000 0.000000 -13.609607 13.413003 5.859003 18.798234 23.131605 -6.242446 0.000000 0.000000 0.000000 
-110.086746 15.736664 0.666943 0.000000 0.000000 0.000000 -77.609377 -15.520094 105.096701 -19.998249 -14.412676 5.399362 44.226131 39.048837 -5.498243 25.251003 9.793360 -14.201071 -1.175034 0.006593 0.006106 0.000000 0.000000 0.000000 -77.609377 -15.520094 105.096701 -32.994113 -13.649496 -41.699797 72.249550 -18.179129 12.004768 13.273039 4.053043 21.308688 -0.001736 0.022447 -0.000208 0.000000 0.000000 0.000000 -77.609377 -15.520094 105.096701 14.017250 -0.024157 -1.678954 5.715629 -0.628955 3.513427 0.000000 0.000000 0.000000 0.000000 0.000000 0.000000 5.720564 -0.426742 3.525999 7.056800 -7.145802 1.609579 -26.960123 -6.986790 -0.133374 0.000000 0.000000 0.000000 5.720564 -0.426742 3.525999 0.648431 -1.427985 -15.892718 0.000000 0.000000 0.000000 -96.771042 40.301948 -1.127234 60.931086 -17.973072 48.298088 0.000000 0.000000 0.000000 5.720564 -0.426742 3.525999 7.795399 10.130681 -12.171127 0.000000 0.000000 0.000000 -10.263546 6.895278 4.151065 2.439819 25.036395 1.580985 0.000000 0.000000 0.000000 
-114.731171 17.471451 0.427753 0.000000 0.000000 0.000000 -80.150549 -13.482062 103.474197 -19.043500 -15.037705 11.475906 40.717937 35.449071 -7.081949 24.943296 10.058280 -17.622815 -1.170925 0.007886 0.007241 0.000000 0.000000 0.000000 -80.150549 -13.482062 103.474197 -31.546516 -13.212758 -37.434054 63.263849 -20.650414 10.936440 16.674169 3.375177 22.483690 -0.001750 0.022891 -0.000190 0.000000 0.000000 0.000000 -80.150549 -13.482062 103.474197 11.010721 -0.062959 -0.652522 4.462540 -0.860177 4.308204 0.000000 0.000000 0.000000 0.000000 0.000000 0.000000 4.467254 -0.673242 4.329118 9.823368 -6.734274 2.594867 -32.411846 -6.973034 0.697798 0.000000 0.000000 0.000000 4.467254 -0.673242 4.329118 0.752397 -1.425739 -12.362572 0.000000 0.000000 0.000000 -87.065022 45.716386 -3.750421 73.314021 -3.231330 59.909235 0.000000 0.000000 0.000000 4.467254 -0.673242 4.329118 7.190156 10.244760 -14.012002 0.000000 0.000000 0.000000 -7.402707 4.030688 3.251451 -12.118721 23.194375 8.708932 0.000000 0.000000 0.000000 
-118.499840 19.188004 0.066792 0.000000 0.000000 0.000000 -82.687561 -13.151454 103.425409 -20.302543 -3.092607 15.603449 36.790729 24.983230 -5.024202 18.148443 6.497448 -11.889563 -1.167649 0.008942 0.008097 0.000000 0.000000 0.000000 -82.687561 -13.151454 103.425409 -29.949263 -13.417926 -36.808289 56.977810 -20.930013 9.517792 19.064680 3.353181 22.908113 -0.001747 0.023008 -0.000214 0.000000 0.000000 0.000000 -82.687561 -13.151454 103.425409 10.440649 -0.305677 -0.968534 3.742869 -1.368776 5.395236 0.000000 0.000000 0.000000 0.000000 0.000000 0.000000 3.759494 -1.127133 5.431541 18.728082 -7.687155 4.231875 -32.929715 -9.437502 2.537716 0.000000 0.000000 0.000000 3.759494 -1.127133 5.431541 0.756080 -0.392982 -11.673084 0.000000 0.000000 0.000000 -86.050084 38.063077 -5.469446 65.642906 -5.288506 42.978330 0.000000 0.000000 0.000000 3.759494 -1.127133 5.431541 7.014562 10.097653 -18.110253 0.000000 0.000000 0.000000 -6.366542 0.403361 3.270816 -21.274257 20.195319 12.476671 0.000000 0.000000 0.000000 
